<?xml version="1.0" standalone="no"?><!DOCTYPE svg PUBLIC "-//W3C//DTD SVG 1.1//EN" "http://www.w3.org/Graphics/SVG/1.1/DTD/svg11.dtd"><svg t="1537842750924" class="icon" style="" viewBox="0 0 1024 1024" version="1.1" xmlns="http://www.w3.org/2000/svg" p-id="3425" xmlns:xlink="http://www.w3.org/1999/xlink" width="200" height="200"><defs><style type="text/css"></style></defs><path d="M445.248 445.248m-155.84 0a155.84 155.84 0 1 0 311.68 0 155.84 155.84 0 1 0-311.68 0Z" fill="#DAF3FF" p-id="3426"></path><path d="M890.432 311.68v400.64a44.544 44.544 0 0 1-44.544 44.544H133.568v89.024h845.888V311.68h-89.024z" fill="#DAF3FF" p-id="3427"></path><path d="M445.248 267.136a178.112 178.112 0 1 0 0 356.16 178.112 178.112 0 0 0 0-356.16z m0 311.68A133.76 133.76 0 0 1 311.68 445.184 133.76 133.76 0 0 1 445.248 311.68a133.76 133.76 0 0 1 133.504 133.568 133.76 133.76 0 0 1-133.504 133.504z" fill="#1FB6FF" p-id="3428"></path><path d="M712.32 445.248m-44.544 0a44.544 44.544 0 1 0 89.088 0 44.544 44.544 0 1 0-89.088 0Z" fill="#1FB6FF" p-id="3429"></path><path d="M178.112 445.248m-44.544 0a44.544 44.544 0 1 0 89.088 0 44.544 44.544 0 1 0-89.088 0Z" fill="#1FB6FF" p-id="3430"></path><path d="M979.456 267.136h-89.024V178.112a44.544 44.544 0 0 0-44.544-44.544H44.544A44.544 44.544 0 0 0 0 178.112v534.208c0 24.64 19.904 44.544 44.544 44.544h44.48v89.024c0 24.64 19.968 44.544 44.544 44.544h845.888a44.544 44.544 0 0 0 44.544-44.544V311.68a44.544 44.544 0 0 0-44.544-44.544zM44.544 712.32V178.112h801.344v534.208H44.544z m934.912 133.568H133.568v-88.96h712.32a44.544 44.544 0 0 0 44.544-44.608V311.68h89.024v534.208z" fill="#1FB6FF" p-id="3431"></path></svg>