<?xml version="1.0" standalone="no"?><!DOCTYPE svg PUBLIC "-//W3C//DTD SVG 1.1//EN" "http://www.w3.org/Graphics/SVG/1.1/DTD/svg11.dtd"><svg t="1537868083568" class="icon" style="" viewBox="0 0 1024 1024" version="1.1" xmlns="http://www.w3.org/2000/svg" p-id="1849" xmlns:xlink="http://www.w3.org/1999/xlink" width="200" height="200"><defs><style type="text/css"></style></defs><path d="M0 512.064c0-63.68 51.584-115.2 115.2-115.2s115.2 51.584 115.2 115.2c0 63.552-51.584 115.136-115.2 115.136S0 575.616 0 512.064z m793.6 0c0-63.68 51.648-115.2 115.136-115.2 63.616 0 115.264 51.584 115.264 115.2 0 63.552-51.648 115.136-115.264 115.136-63.488 0-115.136-51.584-115.136-115.136z m-396.8 0c0-63.616 51.584-115.264 115.2-115.264 63.552 0 115.264 51.648 115.264 115.264 0 63.552-51.712 115.136-115.264 115.136-63.616 0-115.2-51.584-115.2-115.136z" fill="#8A8A8A" p-id="1850"></path></svg>