<?xml version="1.0" encoding="utf-8"?>
<!-- Generator: Adobe Illustrator 22.0.1, SVG Export Plug-In . SVG Version: 6.00 Build 0)  -->
<svg version="1.0" id="图层_1" xmlns="http://www.w3.org/2000/svg" xmlns:xlink="http://www.w3.org/1999/xlink" x="0px" y="0px"
	 viewBox="0 0 1024 1024" style="enable-background:new 0 0 1024 1024;" xml:space="preserve">
<style type="text/css">
	.st0{fill:#F25F5C;}
	.st1{fill:#FFFFFF;stroke:#FFFFFF;stroke-width:20;stroke-miterlimit:10;}
</style>
<g>
	<path class="st0" d="M82.8,456.3c-12.1,0-22-9.9-22-22V79.8c0-12.1,9.9-22,22-22h354.5c12.1,0,22,9.9,22,22v354.5
		c0,12.1-9.9,22-22,22H82.8z"/>
	<path class="st0" d="M437.3,78.5c0.7,0,1.3,0.6,1.3,1.3v354.5c0,0.7-0.6,1.3-1.3,1.3H82.8c-0.7,0-1.3-0.6-1.3-1.3V79.8
		c0-0.7,0.6-1.3,1.3-1.3H437.3 M437.3,37H82.8C59.2,37,40,56.2,40,79.8v354.5c0,23.6,19.2,42.8,42.8,42.8h354.5
		c23.6,0,42.8-19.2,42.8-42.8V79.8C480,56.2,460.8,37,437.3,37L437.3,37z"/>
</g>
<g>
	<path class="st0" d="M437.8,572c0.7,0,1.3,0.6,1.3,1.3v354.5c0,0.7-0.6,1.3-1.3,1.3H83.3c-0.7,0-1.3-0.6-1.3-1.3V573.3
		c0-0.7,0.6-1.3,1.3-1.3H437.8 M437.8,530.5H83.3c-23.6,0-42.8,19.2-42.8,42.8v354.5c0,23.6,19.2,42.8,42.8,42.8h354.5
		c23.6,0,42.8-19.2,42.8-42.8V573.3C480.5,549.7,461.3,530.5,437.8,530.5L437.8,530.5z"/>
</g>
<g>
	<path class="st0" d="M944.8,572c0.7,0,1.3,0.6,1.3,1.3v354.5c0,0.7-0.6,1.3-1.3,1.3H590.3c-0.7,0-1.3-0.6-1.3-1.3V573.3
		c0-0.7,0.6-1.3,1.3-1.3H944.8 M944.8,530.5H590.3c-23.6,0-42.8,19.2-42.8,42.8v354.5c0,23.6,19.2,42.8,42.8,42.8h354.5
		c23.6,0,42.8-19.2,42.8-42.8V573.3C987.5,549.7,968.3,530.5,944.8,530.5L944.8,530.5z"/>
</g>
<g>
	<path class="st0" d="M944.8,78c0.7,0,1.3,0.6,1.3,1.3v354.5c0,0.7-0.6,1.3-1.3,1.3H590.3c-0.7,0-1.3-0.6-1.3-1.3V79.3
		c0-0.7,0.6-1.3,1.3-1.3H944.8 M944.8,36.5H590.3c-23.6,0-42.8,19.2-42.8,42.8v354.5c0,23.6,19.2,42.8,42.8,42.8h354.5
		c23.6,0,42.8-19.2,42.8-42.8V79.3C987.5,55.7,968.3,36.5,944.8,36.5L944.8,36.5z"/>
</g>
<g>
	<path class="st1" d="M249.6,142h7.7l70.6,171.4h-6.7L298,257h-89.3l-23,56.4H179L249.6,142z M211.2,251.2h84.5l-41.8-103h-0.7
		L211.2,251.2z"/>
</g>
<g>
</g>
<g>
</g>
<g>
</g>
<g>
</g>
<g>
</g>
<g>
</g>
<g>
</g>
<g>
</g>
<g>
</g>
<g>
</g>
<g>
</g>
</svg>
