<?xml version="1.0" standalone="no"?><!DOCTYPE svg PUBLIC "-//W3C//DTD SVG 1.1//EN" "http://www.w3.org/Graphics/SVG/1.1/DTD/svg11.dtd"><svg t="1537842360901" class="icon" style="" viewBox="0 0 1024 1024" version="1.1" xmlns="http://www.w3.org/2000/svg" p-id="1849" xmlns:xlink="http://www.w3.org/1999/xlink" width="200" height="200"><defs><style type="text/css"></style></defs><path d="M191.60002 597.225947H831.823164c35.447094 0 64.111892 21.754534 64.111892 49.139654 0 12.668817-6.398392 24.057955-16.507852 32.759769l-316.464488 325.038334c-21.242663 21.498598-61.168631 26.105441-89.321558 9.725556a51.571043 51.571043 0 0 1-12.796785-9.725556L140.796785 675.670238c-20.986727-21.498598-15.356142-52.466818 12.796785-68.590767a75.117127 75.117127 0 0 1 38.134418-9.853524zM191.60002 426.516838H831.823164c35.447094 0 64.111892-21.754534 64.111892-49.139654a43.509068 43.509068 0 0 0-16.507852-32.759769L562.834748 19.579081C541.592085-1.919518 501.666116-6.52636 473.51319 9.853524a51.571043 51.571043 0 0 0-12.796785 9.725557L140.796785 348.072547c-20.986727 21.498598-15.356142 52.466818 12.796785 68.590766 11.517106 6.782296 24.825763 9.853524 38.134418 9.853525z" p-id="1850"></path></svg>